<svg xmlns="http://www.w3.org/2000/svg" width="307.49969" height="46" viewBox="0 0 81.359298 12.170832">
  <g transform="translate(67.62935,-142.48334)">
    <g transform="translate(0.26458213,-0.26457659)">
      <path style="fill:#71be8f;fill-rule:evenodd;stroke:none;stroke-width:0.26458332" d="m -10.53439,147.74695 c 0,-2.61502 -2.16022,-4.73445 -4.82696,-4.73445 -2.66329,0 -4.82627,2.11943 -4.82627,4.73445 0,2.61367 2.16298,4.7358 4.82627,4.7358 2.66674,0 4.82696,-2.12213 4.82696,-4.7358 z m -0.88363,0 c 0,2.13698 -1.76383,3.86818 -3.94333,3.86818 -2.17674,0 -3.94195,-1.7312 -3.94195,-3.86818 0,-2.13496 1.76521,-3.86683 3.94195,-3.86683 2.1795,0 3.94333,1.73187 3.94333,3.86683 z"/>
      <polyline transform="matrix(0.26458333,0,0,0.26458333,-67.62935,143.0125)" style="fill:#7d7c7a;fill-rule:evenodd;stroke:none;stroke-width:1" points="0 42.721494 3.62063602 42.721494 7.69905361 21.6810115 7.77968559 21.6810115 17.9523203 44 28.1717735 21.6810115 28.2550065 21.6810115 32.3334241 42.721494 35.9514591 42.721494 29.5217089 9.84781348 17.9523203 35.9589375 6.43495224 9.84781348 0 42.721494"/>
      <polyline transform="matrix(0.26458333,0,0,0.26458333,-67.62935,143.0125)" style="fill:#7d7c7a;fill-rule:evenodd;stroke:none;stroke-width:1" points="56.8013286 42.721494 73.2398485 42.721494 73.2398485 39.5035379 60.3335296 39.5035379 60.3335296 27.3003132 72.8600979 27.3003132 72.8600979 24.0798051 60.3335296 24.0798051 60.3335296 14.8444496 73.2398485 14.8444496 73.2398485 11.6239415 56.8013286 11.6239415 56.8013286 42.721494"/>
      <path style="fill:#7d7c7a;fill-rule:evenodd;stroke:none;stroke-width:0.26458332" d="m -35.97056,150.21343 c 0,-1.2221 -0.43356,-2.32537 -1.38877,-3.13357 -0.99031,-0.82846 -2.01571,-0.99186 -3.27165,-0.99186 h -1.5794 v 8.22789 h 1.55669 c 1.31306,0 2.31507,-0.16339 3.31638,-1.03507 0.92286,-0.8082 1.36675,-1.86825 1.36675,-3.06739 z m -0.93181,-0.0108 c 0,0.91691 -0.35855,1.7771 -1.04811,2.41043 -0.76734,0.7103 -1.62276,0.85142 -2.64609,0.85142 h -0.67925 v -6.52438 h 0.67925 c 0.98824,0 1.83471,0.12963 2.60204,0.7947 0.7226,0.6232 1.09216,1.52863 1.09216,2.46783 z"/>
      <path style="fill:#1b1a19;fill-rule:evenodd;stroke:none;stroke-width:0.26458332" d="m -23.96785,148.79485 c 0,-1.89054 -1.24425,-2.70685 -3.04661,-2.70685 h -3.33704 v 8.22789 h 2.1795 v -2.72642 h 1.23461 c 1.90147,0 2.96954,-0.85209 2.96954,-2.79462 z m -2.26827,0.0648 c 0,1.00401 -0.77834,1.00401 -1.56907,1.00401 H -28.172 v -2.05124 h 0.36681 c 0.84647,0 1.56907,0.0108 1.56907,1.04723 z"/>
      <polyline transform="matrix(0.26458333,0,0,0.26458333,-67.62935,143.0125)" style="fill:#1b1a19;fill-rule:evenodd;stroke:none;stroke-width:1" points="214.018084 42.721494 202.068945 11.6239415 193.074578 11.6239415 180.883542 42.721494 189.628211 42.721494 191.813077 37.3242083 191.828683 37.3242083 194.117591 31.1332792 194.083778 31.1332792 197.488528 21.2344276 197.576963 21.2344276 200.760626 30.610138 200.77103 30.6050342 203.525523 38.2122724 203.502113 38.2173762 205.221395 42.721494 214.018084 42.721494"/>
      <path style="fill:#1b1a19;fill-rule:evenodd;stroke:none;stroke-width:0.26458332" d="m 0.11879,146.28516 c -0.64484,-0.26333 -1.28829,-0.41592 -1.99162,-0.41592 -1.17818,0 -2.36875,0.50167 -3.18976,1.33148 -0.80312,0.80618 -1.23461,1.88716 -1.23461,3.01271 0,1.22007 0.42117,2.29092 1.34265,3.10993 0.8685,0.77512 1.9813,1.2113 3.14985,1.2113 0.67718,0 1.20158,-0.16475 1.92349,-0.38216 v -2.56303 c -0.45558,0.53475 -1.16717,0.87032 -1.88014,0.87032 -1.35573,0 -2.26827,-0.93649 -2.26827,-2.23489 0,-1.27881 0.90084,-2.28215 2.23593,-2.28215 0.74531,0 1.4686,0.31667 1.91248,0.90611 v -2.5637"/>
      <polyline transform="matrix(0.26458333,0,0,0.26458333,-67.62935,143.0125)" style="fill:#1b1a19;fill-rule:evenodd;stroke:none;stroke-width:1" points="296 18.4707111 296 11.6239415 277.956644 11.6239415 277.956644 42.721494 296 42.721494 296 35.8747245 286.204515 35.8747245 286.204515 30.5157174 295.490198 30.5157174 295.490198 23.666396 286.204515 23.666396 286.204515 18.4707111 296 18.4707111"/>
      <path d="m 12.30742,153.37034 c 0.0871,0 0.14832,-0.0159 0.18363,-0.0476 0.0353,-0.0318 0.053,-0.0774 0.053,-0.13704 0,-0.029 -0.004,-0.0545 -0.0112,-0.0765 -0.007,-0.022 -0.0196,-0.04 -0.0365,-0.0541 -0.0169,-0.0141 -0.0392,-0.0247 -0.0671,-0.0318 -0.0279,-0.007 -0.0622,-0.0106 -0.103,-0.0106 h -0.1542 v 0.3576 z m 0.0188,-0.49876 c 0.13576,0 0.23602,0.0245 0.30076,0.0735 0.0647,0.049 0.0971,0.12136 0.0971,0.21703 0,0.0737 -0.0208,0.13645 -0.0624,0.18821 -0.0416,0.0518 -0.10398,0.0871 -0.18716,0.10587 0.0133,0.009 0.0249,0.0188 0.0347,0.0306 0.01,0.0118 0.019,0.0255 0.0277,0.0412 l 0.26838,0.39289 h -0.17539 c -0.0259,0 -0.0447,-0.01 -0.0565,-0.0294 l -0.23778,-0.35525 c -0.007,-0.0102 -0.0155,-0.018 -0.0253,-0.0235 -0.01,-0.006 -0.0249,-0.008 -0.0453,-0.008 h -0.093 v 0.41642 h -0.18364 v -1.04928 z m 0.0141,1.27984 c 0.0691,0 0.13556,-0.009 0.19952,-0.0265 0.064,-0.0177 0.1236,-0.0427 0.17893,-0.0753 0.0553,-0.0325 0.10555,-0.0716 0.15067,-0.11704 0.0451,-0.0455 0.0838,-0.0963 0.11595,-0.15234 0.0322,-0.0561 0.0571,-0.11626 0.0747,-0.18056 0.0177,-0.0643 0.0265,-0.13136 0.0265,-0.20116 0,-0.10508 -0.0194,-0.2037 -0.0583,-0.29584 -0.0388,-0.0922 -0.0918,-0.17253 -0.15891,-0.24115 -0.0671,-0.0686 -0.14616,-0.12273 -0.23719,-0.16233 -0.091,-0.0396 -0.18835,-0.0594 -0.29193,-0.0594 -0.0691,0 -0.13537,0.009 -0.19894,0.0271 -0.0636,0.018 -0.12262,0.0433 -0.17716,0.0759 -0.0545,0.0325 -0.10437,0.0719 -0.14949,0.11822 -0.0451,0.0463 -0.0836,0.0974 -0.11536,0.15351 -0.0318,0.0561 -0.0563,0.11665 -0.0736,0.18174 -0.0173,0.0651 -0.0259,0.13253 -0.0259,0.20233 0,0.0698 0.009,0.13685 0.0259,0.20115 0.0173,0.0643 0.0418,0.1245 0.0736,0.18057 0.0318,0.0561 0.0702,0.10685 0.11536,0.15233 0.0451,0.0455 0.0949,0.0845 0.14949,0.11705 0.0545,0.0325 0.1136,0.0576 0.17716,0.0753 0.0636,0.0177 0.12988,0.0265 0.19894,0.0265 z m 0,-1.61392 c 0.0793,0 0.15558,0.0102 0.22895,0.0306 0.0734,0.0204 0.14184,0.0494 0.20541,0.087 0.0636,0.0376 0.12164,0.0825 0.17422,0.13469 0.0526,0.0522 0.0975,0.11018 0.13478,0.1741 0.0373,0.0639 0.0661,0.13253 0.0865,0.20585 0.0204,0.0733 0.0306,0.14959 0.0306,0.2288 0,0.0784 -0.0102,0.15429 -0.0306,0.22762 -0.0204,0.0733 -0.0492,0.14175 -0.0865,0.20527 -0.0373,0.0635 -0.0822,0.12136 -0.13478,0.17351 -0.0526,0.0522 -0.11066,0.0971 -0.17422,0.13469 -0.0636,0.0376 -0.13204,0.0667 -0.20541,0.0871 -0.0734,0.0204 -0.14969,0.0306 -0.22895,0.0306 -0.0793,0 -0.15538,-0.0102 -0.22837,-0.0306 -0.073,-0.0204 -0.14125,-0.0494 -0.20482,-0.0871 -0.0636,-0.0376 -0.12144,-0.0825 -0.17362,-0.13469 -0.0522,-0.0521 -0.0971,-0.10999 -0.13479,-0.17351 -0.0377,-0.0635 -0.0667,-0.13175 -0.0871,-0.20468 -0.0204,-0.0729 -0.0306,-0.14901 -0.0306,-0.22821 0,-0.0792 0.0102,-0.15547 0.0306,-0.2288 0.0204,-0.0733 0.0494,-0.14194 0.0871,-0.20585 0.0377,-0.0639 0.0826,-0.12195 0.13479,-0.1741 0.0522,-0.0521 0.11006,-0.097 0.17362,-0.13469 0.0636,-0.0376 0.13184,-0.0667 0.20482,-0.087 0.073,-0.0204 0.14911,-0.0306 0.22837,-0.0306 z" style="fill:#1b1a19;fill-rule:nonzero;stroke:none;stroke-width:0.26458332"/>
    </g>
  </g>
</svg>